g Plane003
v -0.184508607 -0.187908515 -0.00867107883
v -0.60408926 -0.868782341 1.0689317
v -0.781012416 0.128607839 1.27898443
v -0.236284167 0.103972144 0.0527995862
v -0.60408926 -0.868782341 1.0689317
v -1.40345192 0.110930048 2.68881488
v -1.09803486 -1.61083436 2.3262074
v -0.151371762 0.214857623 0.0187313184
v 0.517255247 0.767662108 1.1855222
v 0.151371956 0.214857563 0.0187312216
v -0.517255008 0.767662108 1.18552232
v 0.892922044 1.40764666 2.53632188
v -0.892921746 1.40764666 2.53632188
v -0.253554881 -0.034536384 -0.062812157
v -0.785684466 0.814161718 0.991040826
v -0.120113261 0.233719885 -0.0193885453
v -1.24166989 -0.102501109 0.842657387
v -1.57734048 1.44368255 2.1539464
v -2.36449432 -0.138724625 1.89779675
v 0.0538005903 -0.247341976 -0.073181577
v -0.540688396 -0.880958617 1.0926522
v -0.217685595 -0.147572428 0.0162331183
v 0.387011558 -1.22188282 0.787112057
v -0.871659577 -1.74579477 2.32467532
v 0.729800701 -2.33432174 1.79723084
v 0.247820333 -0.0633977056 -0.0631977916
v 0.584538341 -0.651348531 1.2232666
v 0.0461701453 -0.252231687 0.0606274046
v 1.27360046 -0.0060808789 0.80014199
v 1.2397269 -1.08351946 2.54966068
v 2.42923379 0.0303864684 1.81923354
v 0.0788276494 0.247013643 -0.0468881242
v 0.682183444 0.14224945 0.478467733
v 0.262083709 0.00691447593 -0.0263156407
v 0.279481858 0.669862449 0.433259994
v 1.10431325 0.274924338 0.983478904
v 0.478105605 1.09537113 0.913180113
v 2.05036092 0.623203576 2.14926672
v 0.96935761 2.03951573 2.02791214
v -0.182143673 0.0729987919 -0.175849244
v -0.361016184 1.41902494 0.344030261
v 0.0674503371 0.230498567 -0.108392797
v -1.21390808 0.88082993 0.113523789
v -0.896559417 2.77005887 0.85712558
v -2.36888099 1.84098911 0.459209114
v -0.0615228899 0.178805798 -0.18349801
v 1.18925989 0.915425897 -0.0998918638
v 0.194718927 0.0177261699 -0.176630974
v 0.313651502 1.46585357 -0.123357199
v 2.30008721 1.98019266 -0.0121373404
v 0.788550794 2.93037915 -0.0526452363
v 0.166889623 0.10361436 -0.175613403
v 1.18004572 -0.93140614 -0.0479266271
v 0.0725934878 -0.18406485 -0.174007013
v 1.50226629 0.051627323 -0.053416118
v 2.47707367 -1.75107312 0.0977828875
v 3.03331327 -0.0540921204 0.0883068144
v 0.163771495 -0.166128471 -0.122508414
v -0.482654929 -1.3829726 0.341688722
v -0.138411507 -0.177480504 -0.137007236
v 0.549939871 -1.3441813 0.39123261
v -0.833357871 -2.77677989 0.898172081
v 0.94917953 -2.7098155 0.983698249
v -0.082281217 -0.197391912 -0.153929844
v -1.50092375 0.0942801908 -0.0257194564
v -0.167989597 0.0916912556 -0.181108519
v -1.20804822 -0.893550515 0.067152977
v -3.03050208 0.0515216105 0.158476949
v -2.52491999 -1.65374053 0.318799824
vt 0 0
vt 0 0.5
vt 1 0.5
vt 1 0
vt 0 0.5
vt 1 1
vt 0 1
vt 0 0
vt 1 0.5
vt 1 0
vt 0 0.5
vt 1 1
vt 0 1
vt 0 0
vt 1 0.5
vt 1 0
vt 0 0.5
vt 1 1
vt 0 1
vt 0 0
vt 1 0.5
vt 1 0
vt 0 0.5
vt 1 1
vt 0 1
vt 0 0
vt 1 0.5
vt 1 0
vt 0 0.5
vt 1 1
vt 0 1
vt 0 0
vt 1 0.25
vt 1 0
vt 0 0.25
vt 1 0.5
vt 0 0.5
vt 1 1
vt 0 1
vt 0 0
vt 1 0.5
vt 1 0
vt 0 0.5
vt 1 1
vt 0 1
vt 0 0
vt 1 0.5
vt 1 0
vt 0 0.5
vt 1 1
vt 0 1
vt 0 0
vt 1 0.5
vt 1 0
vt 0 0.5
vt 1 1
vt 0 1
vt 0 0
vt 1 0.5
vt 1 0
vt 0 0.5
vt 1 1
vt 0 1
vt 0 0
vt 1 0.5
vt 1 0
vt 0 0.5
vt 1 1
vt 0 1
vn 0.911711454 0.0767706782 0.403594404
vn -0 -0.903613567 0.42834869
vn 0.911754072 0.07675419 0.403501391
vn 0.911754072 0.0767542049 0.403501451
vn -0.435270339 0.770210981 0.466170341
vn 0.911754072 0.07675419 0.403501421
vn -0.0472859107 -0.0327950679 0.998342872
vn -0.047131259 -0.0330109596 0.99834311
vn -0 -0.90370363 0.428158492
vn -0 -0.90370369 0.428158462
vn -0 -0.90370363 0.428158492
vn -0 -0.90370363 0.428158551
vn -0 -0.90370363 0.428158551
vn 0.628965139 -0.418888927 0.654931247
vn 0.628965139 -0.418888927 0.654931247
vn 0.628965139 -0.418888986 0.654931188
vn 0.628965139 -0.418888986 0.654931247
vn 0.62896502 -0.418888897 0.654931247
vn 0.62896508 -0.418888897 0.654931366
vn 0.442514032 0.67374301 0.591820598
vn 0.442514002 0.67374301 0.591820598
vn 0.442514032 0.67374301 0.591820598
vn 0.442514032 0.67374301 0.591820598
vn 0.442514002 0.67374301 0.591820538
vn 0.442514002 0.67374301 0.591820538
vn -0.435237527 0.77034086 0.465986431
vn -0.435237557 0.770340741 0.465986371
vn -0.435237527 0.77034086 0.465986401
vn -0.435237616 0.77034086 0.465986401
vn -0.435237527 0.77034086 0.465986401
vn -0.435237557 0.770340741 0.465986371
vn -0.634377062 -0.429095358 0.642995238
vn -0.634377062 -0.429095417 0.642995179
vn -0.634377062 -0.429095387 0.642995238
vn -0.634377062 -0.429095358 0.642995179
vn -0.634377182 -0.429095507 0.642995119
vn -0.634377182 -0.429095536 0.642995119
vn -0.634377062 -0.429095626 0.642995119
vn -0.634377062 -0.429095596 0.642995179
vn -0.0228132624 -0.362835974 0.931573689
vn -0.0228133183 -0.362835884 0.931573689
vn -0.0228132606 -0.362835974 0.931573689
vn -0.0228132624 -0.362835944 0.931573689
vn -0.0228133649 -0.362835944 0.931573689
vn -0.0228133649 -0.362835914 0.931573689
vn -0.0473947898 -0.0328343958 0.998336494
vn -0.0473948419 -0.0328343436 0.998336494
vn -0.0473947898 -0.032834392 0.998336494
vn -0.0473947898 -0.0328343958 0.998336494
vn -0.0473948754 -0.0328343064 0.998336494
vn -0.0473948792 -0.0328343101 0.998336494
vn -0.0897212252 0.0349672288 0.995352864
vn -0.0897212774 0.0349672139 0.995352864
vn -0.0897212327 0.0349672325 0.995352864
vn -0.0897212252 0.0349672325 0.995352864
vn -0.0897212923 0.0349672027 0.995352864
vn -0.0897212923 0.0349672027 0.995352864
vn -0.058617454 0.382842362 0.921952128
vn -0.0586174466 0.382842332 0.921952128
vn -0.058617454 0.382842332 0.921952128
vn -0.0586174615 0.382842332 0.921952128
vn -0.0586174242 0.382842273 0.921952188
vn -0.0586174242 0.382842273 0.921952188
vn 0.115101419 0.126754001 0.985233486
vn 0.115101427 0.126753971 0.985233486
vn 0.115101419 0.126753986 0.985233486
vn 0.115101404 0.126753986 0.985233486
vn 0.115101427 0.126753926 0.985233486
vn 0.115101427 0.126753926 0.985233486
g Plane003_0
f 3/3/3 2/2/2 1/1/1
f 4/4/4 3/3/3 1/1/1
f 3/3/3 6/6/6 5/5/5
f 6/6/6 7/7/7 5/5/5
f 10/10/10 9/9/9 8/8/8
f 9/9/9 11/11/11 8/8/8
f 9/9/9 12/12/12 11/11/11
f 12/12/12 13/13/13 11/11/11
f 16/16/16 15/15/15 14/14/14
f 15/15/15 17/17/17 14/14/14
f 15/15/15 18/18/18 17/17/17
f 18/18/18 19/19/19 17/17/17
f 22/22/22 21/21/21 20/20/20
f 21/21/21 23/23/23 20/20/20
f 21/21/21 24/24/24 23/23/23
f 24/24/24 25/25/25 23/23/23
f 28/28/28 27/27/27 26/26/26
f 27/27/27 29/29/29 26/26/26
f 27/27/27 30/30/30 29/29/29
f 30/30/30 31/31/31 29/29/29
f 34/34/34 33/33/33 32/32/32
f 33/33/33 35/35/35 32/32/32
f 33/33/33 36/36/36 35/35/35
f 36/36/36 37/37/37 35/35/35
f 36/36/36 38/38/38 37/37/37
f 38/38/38 39/39/39 37/37/37
f 42/42/42 41/41/41 40/40/40
f 41/41/41 43/43/43 40/40/40
f 41/41/41 44/44/44 43/43/43
f 44/44/44 45/45/45 43/43/43
f 48/48/48 47/47/47 46/46/46
f 47/47/47 49/49/49 46/46/46
f 47/47/47 50/50/50 49/49/49
f 50/50/50 51/51/51 49/49/49
f 54/54/54 53/53/53 52/52/52
f 53/53/53 55/55/55 52/52/52
f 53/53/53 56/56/56 55/55/55
f 56/56/56 57/57/57 55/55/55
f 60/60/60 59/59/59 58/58/58
f 59/59/59 61/61/61 58/58/58
f 59/59/59 62/62/62 61/61/61
f 62/62/62 63/63/63 61/61/61
f 66/66/66 65/65/65 64/64/64
f 65/65/65 67/67/67 64/64/64
f 65/65/65 68/68/68 67/67/67
f 68/68/68 69/69/69 67/67/67
