g Cone001
v 0.525920391 1.96276116 0
v 1.51974291E-07 1.91673028 0.417256445
v 1.53411733E-07 2.03200006 0
v 0.496086389 1.85141933 0.417256445
v 1.01599991 1.75976372 0
v 1.38818919E-07 1.74248219 0.834512889
v 0.958365023 1.65993726 0.417256445
v 1.43684101 1.43684101 0
v 0.450987637 1.68310845 0.834512889
v 1.15058796E-07 1.52399993 1.2517693
v 0.394440264 1.47207093 1.2517693
v 0.871240973 1.50903392 0.834512889
v 0.761999965 1.31982267 1.2517693
v 1.35533297 1.35533297 0.417256445
v 1.75976348 1.01600003 0
v 1.23212087 1.23212087 0.834512889
v 1.07763076 1.07763076 1.2517693
v 1.65993726 0.958365142 0.417256445
v 1.96276116 0.525920331 0
v 1.5090338 0.871241093 0.834512889
v 1.31982267 0.761999965 1.2517693
v 1.85141933 0.496086329 0.417256445
v 2.03200006 0 0
v 1.68310845 0.450987577 0.834512889
v 1.47207093 0.394440204 1.2517693
v 1.91673028 -2.22642105E-09 0.417256445
v 1.96276081 -0.525921762 0
v 1.74248219 -2.34360176E-09 0.834512889
v 1.52399993 0 1.2517693
v 1.85141897 -0.4960877 0.417256445
v 1.75976288 -1.01600111 0
v 1.68310833 -0.450988829 0.834512889
v 1.47207069 -0.394441307 1.2517693
v 1.65993667 -0.958366275 0.417256445
v 1.43684006 -1.43684196 0
v 1.5090332 -0.871242046 0.834512889
v 1.31982219 -0.762000918 1.2517693
v 1.35533214 -1.35533392 0.417256445
v 1.01599896 -1.75976431 0
v 1.23212028 -1.23212183 0.834512889
v 1.07763004 -1.07763135 1.2517693
v 0.958364189 -1.65993762 0.417256445
v 0.525919259 -1.96276152 0
v 0.871240199 -1.50903428 0.834512889
v 0.76199919 -1.31982315 1.2517693
v 0.496085316 -1.85141957 0.417256445
v -9.44701753E-07 -2.03200006 0
v 0.450986654 -1.68310869 0.834512889
v 0.394439429 -1.47207105 1.2517693
v -8.83846326E-07 -1.91673028 0.417256445
v -0.525921106 -1.96276104 0
v -8.02836098E-07 -1.74248219 0.834512889
v -7.08526329E-07 -1.52399993 1.2517693
v -0.496087044 -1.85141909 0.417256445
v -1.01600063 -1.75976312 0
v -0.450988203 -1.68310833 0.834512889
v -0.39444083 -1.47207081 1.2517693
v -0.958365798 -1.65993679 0.417256445
v -1.43684173 -1.43684018 0
v -0.87124157 -1.50903344 0.834512889
v -0.762000442 -1.31982243 1.2517693
v -1.35533369 -1.35533226 0.417256445
v -1.75976408 -1.01599908 0
v -1.23212171 -1.23212028 0.834512889
v -1.07763135 -1.07763016 1.2517693
v -1.65993762 -0.958364367 0.417256445
v -1.96276152 -0.525919437 0
v -1.50903428 -0.871240437 0.834512889
v -1.31982303 -0.761999369 1.2517693
v -1.85141957 -0.496085495 0.417256445
v -2.03200006 7.91289949E-07 0
v -1.68310869 -0.450986803 0.834512889
v -1.47207105 -0.394439578 1.2517693
v -1.91673028 7.44175907E-07 0.417256445
v -1.96276116 0.525920928 0
v -1.74248219 6.76204024E-07 0.834512889
v -1.52399993 5.93467519E-07 1.2517693
v -1.85141909 0.496086925 0.417256445
v -1.75976336 1.01600051 0
v -1.68310845 0.450988114 0.834512889
v -1.47207081 0.394440711 1.2517693
v -1.65993679 0.958365619 0.417256445
v -1.43684053 1.43684137 0
v -1.50903356 0.87124151 0.834512889
v -1.31982255 0.762000382 1.2517693
v -1.35533261 1.35533333 0.417256445
v -1.01599967 1.75976384 0
v -1.23212063 1.23212135 0.834512889
v -1.0776304 1.077631 1.2517693
v -0.958364844 1.65993738 0.417256445
v -0.525920033 1.9627614 0
v -0.871240795 1.50903404 0.834512889
v -0.761999726 1.31982279 1.2517693
v -0.496086091 1.85141933 0.417256445
v 1.53411733E-07 2.03200006 0
v 1.51974291E-07 1.91673028 0.417256445
v -0.450987399 1.68310869 0.834512889
v -0.394440055 1.47207093 1.2517693
v 1.38818919E-07 1.74248219 0.834512889
v 1.15058796E-07 1.52399993 1.2517693
vt 0.958333313 0
vt 1 0.333333343
vt 0.99999994 0
vt 0.958333313 0.333333343
vt 0.916666687 0
vt 0.99999994 0.666666687
vt 0.916666687 0.333333343
vt 0.875 0
vt 0.958333313 0.666666687
vt 0.99999994 1
vt 0.958333313 1
vt 0.916666687 0.666666687
vt 0.916666687 1
vt 0.875 0.333333343
vt 0.833333313 0
vt 0.875 0.666666687
vt 0.875 1
vt 0.833333313 0.333333343
vt 0.791666687 0
vt 0.833333313 0.666666687
vt 0.833333313 1
vt 0.791666687 0.333333343
vt 0.75 0
vt 0.791666627 0.666666687
vt 0.791666687 1
vt 0.75 0.333333343
vt 0.708333254 0
vt 0.75 0.666666687
vt 0.75 1
vt 0.708333254 0.333333343
vt 0.666666567 0
vt 0.708333254 0.666666687
vt 0.708333254 1
vt 0.666666567 0.333333343
vt 0.624999881 0
vt 0.666666567 0.666666687
vt 0.666666567 1
vt 0.624999881 0.333333343
vt 0.583333254 0
vt 0.624999881 0.666666687
vt 0.624999881 1
vt 0.583333254 0.333333343
vt 0.541666567 0
vt 0.583333254 0.666666687
vt 0.583333254 1
vt 0.541666567 0.333333343
vt 0.499999911 0
vt 0.541666567 0.666666687
vt 0.541666567 1
vt 0.499999911 0.333333343
vt 0.458333254 0
vt 0.499999911 0.666666687
vt 0.499999911 1
vt 0.458333254 0.333333343
vt 0.416666597 0
vt 0.458333254 0.666666687
vt 0.458333254 1
vt 0.416666597 0.333333343
vt 0.374999911 0
vt 0.416666597 0.666666687
vt 0.416666597 1
vt 0.374999911 0.333333343
vt 0.333333254 0
vt 0.374999911 0.666666687
vt 0.374999911 1
vt 0.333333254 0.333333343
vt 0.291666597 0
vt 0.333333254 0.666666687
vt 0.333333254 1
vt 0.291666627 0.333333343
vt 0.24999994 0
vt 0.291666597 0.666666687
vt 0.291666627 1
vt 0.24999994 0.333333343
vt 0.208333284 0
vt 0.24999994 0.666666687
vt 0.24999994 1
vt 0.208333284 0.333333343
vt 0.166666627 0
vt 0.208333299 0.666666687
vt 0.208333284 1
vt 0.166666627 0.333333343
vt 0.12499997 0
vt 0.166666627 0.666666687
vt 0.166666627 1
vt 0.12499997 0.333333343
vt 0.0833333135 0
vt 0.12499997 0.666666687
vt 0.12499997 1
vt 0.0833333135 0.333333343
vt 0.0416666567 0
vt 0.0833333135 0.666666687
vt 0.0833333135 1
vt 0.0416666567 0.333333343
vt -5.96046448E-08 0
vt 0 0.333333343
vt 0.0416666567 0.666666687
vt 0.0416666567 1
vt -5.96046448E-08 0.666666687
vt -5.96046448E-08 1
vn 0.249474376 0.931051254 0.266281843
vn -0 0.94576174 0.324861139
vn -0 0.963895142 0.266282052
vn 0.244781122 0.913535774 0.324861139
vn 0.481947511 0.834757686 0.266281933
vn -0 0.905834675 0.42363137
vn 0.4728809 0.81905365 0.324861109
vn 0.681576848 0.681576669 0.266282082
vn 0.234447271 0.874969006 0.4236314
vn -0 0.885901928 0.463872582
vn 0.229288265 0.855715573 0.463872612
vn 0.452917397 0.784475863 0.42363137
vn 0.442950964 0.767213523 0.463872612
vn 0.668754518 0.668754518 0.324861139
vn 0.834757686 0.48194766 0.266281724
vn 0.640521884 0.640521824 0.42363134
vn 0.626427233 0.626427412 0.463872403
vn 0.81905371 0.47288093 0.324861079
vn 0.931051254 0.249474511 0.266281724
vn 0.784475863 0.452917397 0.42363143
vn 0.767213643 0.442950904 0.463872522
vn 0.913535655 0.244781092 0.324861139
vn 0.963895142 0 0.266282022
vn 0.874969125 0.234447241 0.423631459
vn 0.855715573 0.22928825 0.463872522
vn 0.94576174 0 0.324861169
vn 0.931051135 -0.249474958 0.266281933
vn 0.905834675 0 0.42363134
vn 0.885901928 0 0.463872582
vn 0.913535655 -0.244781524 0.32486099
vn 0.834757566 -0.481948107 0.266281724
vn 0.874969006 -0.234447688 0.4236314
vn 0.855715394 -0.229288653 0.463872552
vn 0.819053411 -0.472881436 0.324861109
vn 0.681576371 -0.681577325 0.266281903
vn 0.784475446 -0.452917844 0.423631519
vn 0.767213285 -0.442951441 0.463872522
vn 0.668753982 -0.668755054 0.324861199
vn 0.481947005 -0.834757984 0.266282201
vn 0.640521348 -0.640522242 0.42363137
vn 0.626426816 -0.62642765 0.463872641
vn 0.472880274 -0.819054008 0.324861199
vn 0.2494739 -0.931051254 0.266282171
vn 0.452916831 -0.784476101 0.42363137
vn 0.442950428 -0.767213941 0.463872612
vn 0.24478063 -0.913535774 0.324861228
vn -5.10945881E-07 -0.963895142 0.266282052
vn 0.234446794 -0.874969184 0.42363143
vn 0.229287937 -0.855715632 0.463872552
vn -3.77822147E-07 -0.94576174 0.324861169
vn -0.249474868 -0.931051135 0.266281843
vn -3.51373927E-07 -0.905834675 0.42363134
vn -3.67839732E-07 -0.885902047 0.463872492
vn -0.244781494 -0.913535655 0.324861079
vn -0.481947929 -0.834757686 0.266281605
vn -0.234447658 -0.874969006 0.4236314
vn -0.229288712 -0.855715573 0.463872403
vn -0.472881228 -0.819053471 0.324861079
vn -0.681577206 -0.68157655 0.266281903
vn -0.452917635 -0.784475625 0.4236314
vn -0.442951351 -0.767213523 0.463872492
vn -0.668754876 -0.66875422 0.324861169
vn -0.834757864 -0.481947273 0.266281903
vn -0.640522122 -0.640521586 0.42363137
vn -0.626427531 -0.626426876 0.463872641
vn -0.819053888 -0.472880542 0.324861109
vn -0.931051373 -0.249473989 0.266282082
vn -0.784476042 -0.45291689 0.423631489
vn -0.767213762 -0.442950517 0.463872582
vn -0.913535774 -0.244780704 0.324861348
vn -0.963895142 3.37370977E-07 0.266282082
vn -0.874969184 -0.234446898 0.42363143
vn -0.855715632 -0.229288012 0.463872552
vn -0.94576174 3.28488653E-07 0.324861228
vn -0.931051135 0.249474764 0.266282201
vn -0.905834675 0 0.42363134
vn -0.885901928 2.71281777E-07 0.463872582
vn -0.913535595 0.244781449 0.324861139
vn -0.834757447 0.481947869 0.266282022
vn -0.874969006 0.234447584 0.4236314
vn -0.855715513 0.229288593 0.463872671
vn -0.819053471 0.472881138 0.324861109
vn -0.681576729 0.681576967 0.266281962
vn -0.784475684 0.452917606 0.42363137
vn -0.767213523 0.442951202 0.463872492
vn -0.668754458 0.668754637 0.324861139
vn -0.481947392 0.834757805 0.266281962
vn -0.640521705 0.640521884 0.42363137
vn -0.626427114 0.626427472 0.463872612
vn -0.472880661 0.819053769 0.324861228
vn -0.249474183 0.931051254 0.266282141
vn -0.452917248 0.784475863 0.423631519
vn -0.442950815 0.767213643 0.463872701
vn -0.244780958 0.913535774 0.324861199
vn -0 0.963895142 0.266282052
vn -0 0.94576174 0.324861139
vn -0.234447137 0.874969125 0.4236314
vn -0.229288146 0.855715573 0.463872701
vn -0 0.905834675 0.42363137
vn -0 0.885901928 0.463872582
g Cone001_0
f 3/3/3 2/2/2 1/1/1
f 2/2/2 4/4/4 1/1/1
f 1/1/1 4/4/4 5/5/5
f 2/2/2 6/6/6 4/4/4
f 4/4/4 7/7/7 5/5/5
f 5/5/5 7/7/7 8/8/8
f 6/6/6 9/9/9 4/4/4
f 4/4/4 9/9/9 7/7/7
f 6/6/6 10/10/10 9/9/9
f 10/10/10 11/11/11 9/9/9
f 9/9/9 11/11/11 12/12/12
f 9/9/9 12/12/12 7/7/7
f 11/11/11 13/13/13 12/12/12
f 7/7/7 14/14/14 8/8/8
f 7/7/7 12/12/12 14/14/14
f 8/8/8 14/14/14 15/15/15
f 12/12/12 13/13/13 16/16/16
f 12/12/12 16/16/16 14/14/14
f 13/13/13 17/17/17 16/16/16
f 14/14/14 18/18/18 15/15/15
f 14/14/14 16/16/16 18/18/18
f 15/15/15 18/18/18 19/19/19
f 16/16/16 17/17/17 20/20/20
f 16/16/16 20/20/20 18/18/18
f 17/17/17 21/21/21 20/20/20
f 18/18/18 22/22/22 19/19/19
f 18/18/18 20/20/20 22/22/22
f 19/19/19 22/22/22 23/23/23
f 20/20/20 21/21/21 24/24/24
f 20/20/20 24/24/24 22/22/22
f 21/21/21 25/25/25 24/24/24
f 22/22/22 26/26/26 23/23/23
f 22/22/22 24/24/24 26/26/26
f 23/23/23 26/26/26 27/27/27
f 24/24/24 25/25/25 28/28/28
f 24/24/24 28/28/28 26/26/26
f 25/25/25 29/29/29 28/28/28
f 26/26/26 30/30/30 27/27/27
f 26/26/26 28/28/28 30/30/30
f 27/27/27 30/30/30 31/31/31
f 28/28/28 29/29/29 32/32/32
f 28/28/28 32/32/32 30/30/30
f 29/29/29 33/33/33 32/32/32
f 30/30/30 34/34/34 31/31/31
f 30/30/30 32/32/32 34/34/34
f 31/31/31 34/34/34 35/35/35
f 32/32/32 33/33/33 36/36/36
f 32/32/32 36/36/36 34/34/34
f 33/33/33 37/37/37 36/36/36
f 34/34/34 38/38/38 35/35/35
f 34/34/34 36/36/36 38/38/38
f 35/35/35 38/38/38 39/39/39
f 36/36/36 37/37/37 40/40/40
f 36/36/36 40/40/40 38/38/38
f 37/37/37 41/41/41 40/40/40
f 38/38/38 42/42/42 39/39/39
f 38/38/38 40/40/40 42/42/42
f 39/39/39 42/42/42 43/43/43
f 40/40/40 41/41/41 44/44/44
f 40/40/40 44/44/44 42/42/42
f 41/41/41 45/45/45 44/44/44
f 42/42/42 46/46/46 43/43/43
f 42/42/42 44/44/44 46/46/46
f 43/43/43 46/46/46 47/47/47
f 44/44/44 45/45/45 48/48/48
f 44/44/44 48/48/48 46/46/46
f 45/45/45 49/49/49 48/48/48
f 46/46/46 50/50/50 47/47/47
f 46/46/46 48/48/48 50/50/50
f 47/47/47 50/50/50 51/51/51
f 48/48/48 49/49/49 52/52/52
f 48/48/48 52/52/52 50/50/50
f 49/49/49 53/53/53 52/52/52
f 50/50/50 54/54/54 51/51/51
f 50/50/50 52/52/52 54/54/54
f 51/51/51 54/54/54 55/55/55
f 52/52/52 53/53/53 56/56/56
f 52/52/52 56/56/56 54/54/54
f 53/53/53 57/57/57 56/56/56
f 54/54/54 58/58/58 55/55/55
f 54/54/54 56/56/56 58/58/58
f 55/55/55 58/58/58 59/59/59
f 56/56/56 57/57/57 60/60/60
f 56/56/56 60/60/60 58/58/58
f 57/57/57 61/61/61 60/60/60
f 58/58/58 62/62/62 59/59/59
f 58/58/58 60/60/60 62/62/62
f 59/59/59 62/62/62 63/63/63
f 60/60/60 61/61/61 64/64/64
f 60/60/60 64/64/64 62/62/62
f 61/61/61 65/65/65 64/64/64
f 62/62/62 66/66/66 63/63/63
f 62/62/62 64/64/64 66/66/66
f 63/63/63 66/66/66 67/67/67
f 64/64/64 65/65/65 68/68/68
f 64/64/64 68/68/68 66/66/66
f 65/65/65 69/69/69 68/68/68
f 66/66/66 70/70/70 67/67/67
f 66/66/66 68/68/68 70/70/70
f 67/67/67 70/70/70 71/71/71
f 68/68/68 69/69/69 72/72/72
f 68/68/68 72/72/72 70/70/70
f 69/69/69 73/73/73 72/72/72
f 70/70/70 74/74/74 71/71/71
f 70/70/70 72/72/72 74/74/74
f 71/71/71 74/74/74 75/75/75
f 72/72/72 73/73/73 76/76/76
f 72/72/72 76/76/76 74/74/74
f 73/73/73 77/77/77 76/76/76
f 74/74/74 78/78/78 75/75/75
f 74/74/74 76/76/76 78/78/78
f 75/75/75 78/78/78 79/79/79
f 76/76/76 77/77/77 80/80/80
f 76/76/76 80/80/80 78/78/78
f 77/77/77 81/81/81 80/80/80
f 78/78/78 82/82/82 79/79/79
f 78/78/78 80/80/80 82/82/82
f 79/79/79 82/82/82 83/83/83
f 80/80/80 81/81/81 84/84/84
f 80/80/80 84/84/84 82/82/82
f 81/81/81 85/85/85 84/84/84
f 82/82/82 86/86/86 83/83/83
f 82/82/82 84/84/84 86/86/86
f 83/83/83 86/86/86 87/87/87
f 84/84/84 85/85/85 88/88/88
f 84/84/84 88/88/88 86/86/86
f 85/85/85 89/89/89 88/88/88
f 86/86/86 90/90/90 87/87/87
f 86/86/86 88/88/88 90/90/90
f 87/87/87 90/90/90 91/91/91
f 88/88/88 89/89/89 92/92/92
f 88/88/88 92/92/92 90/90/90
f 89/89/89 93/93/93 92/92/92
f 90/90/90 94/94/94 91/91/91
f 90/90/90 92/92/92 94/94/94
f 91/91/91 94/94/94 95/95/95
f 94/94/94 96/96/96 95/95/95
f 92/92/92 93/93/93 97/97/97
f 92/92/92 97/97/97 94/94/94
f 94/94/94 97/97/97 96/96/96
f 93/93/93 98/98/98 97/97/97
f 97/97/97 99/99/99 96/96/96
f 97/97/97 98/98/98 99/99/99
f 98/98/98 100/100/100 99/99/99
