g Cylinder001
v 0.119735137 0.679051936 0
v -0.265841991 1.50766456 0.936979175
v -0.119735263 0.679051936 0
v 0.265842021 1.50766456 0.936979175
v 0.344763666 0.597148299 0
v 0.765461504 1.32581794 0.936979175
v 0.528208673 0.443219721 0
v 1.17275512 0.984058201 0.936979353
v 0.647943795 0.235832259 0
v 1.43859696 0.523606539 0.936979175
v 0.689527392 0 0
v 1.53092301 3.65377772E-08 0.936979175
v 0.647943616 -0.235832721 0
v 1.43859649 -0.523607373 0.936979175
v 0.528208315 -0.443220019 0
v 1.17275429 -0.984058976 0.936979175
v 0.344763368 -0.597148478 0
v 0.765460789 -1.32581842 0.936979353
v 0.119734839 -0.679052055 0
v 0.265841335 -1.5076648 0.936979353
v -0.119735464 -0.679051876 0
v -0.265842438 -1.50766444 0.936979353
v -0.344763905 -0.59714812 0
v -0.765461624 -1.3258177 0.936979353
v -0.528208733 -0.443219513 0
v -1.172755 -0.984057903 0.936979175
v -0.647943854 -0.23583214 0
v -1.43859661 -0.523606122 0.936979175
v -0.689527392 1.04115749E-07 0
v -1.53092253 2.67700784E-07 0.936979175
v -0.647943795 0.235832319 0
v -1.43859661 0.523606658 0.936979175
v -0.528208673 0.443219721 0
v -1.17275453 0.984058201 0.936979353
v -0.344763756 0.59714824 0
v -0.765461326 1.32581794 0.936979175
v -0.119735263 0.679051936 0
v -0.265841991 1.50766456 0.936979175
vt 0.972222209 0
vt 1.02777779 1
vt 1.02777779 0
vt 0.972222209 1
vt 0.916666687 0
vt 0.916666687 1
vt 0.861111045 0
vt 0.861111045 1
vt 0.805555522 0
vt 0.805555522 1
vt 0.75 0
vt 0.75 1
vt 0.694444299 0
vt 0.694444299 1
vt 0.638888836 0
vt 0.638888836 1
vt 0.583333254 0
vt 0.583333254 1
vt 0.527777672 0
vt 0.527777672 1
vt 0.472222149 0
vt 0.472222149 1
vt 0.416666597 0
vt 0.416666597 1
vt 0.361111075 0
vt 0.361111075 1
vt 0.305555522 0
vt 0.305555522 1
vt 0.249999985 0
vt 0.249999985 1
vt 0.194444433 0
vt 0.194444433 1
vt 0.138888896 0
vt 0.138888896 1
vt 0.0833333507 0
vt 0.0833333507 1
vt 0.0277778096 0
vt 0.0277778096 1
vn 0.129200861 0.73273474 -0.668136895
vn -0.12920095 0.73273474 -0.668136895
vn -0.129200965 0.73273474 -0.668136895
vn 0.129200906 0.73273474 -0.668136954
vn 0.372019053 0.644356072 -0.668136954
vn 0.372019142 0.644356072 -0.668136954
vn 0.569966316 0.47825861 -0.668137014
vn 0.569966376 0.47825855 -0.668136954
vn 0.699167252 0.2544761 -0.668136895
vn 0.699167252 0.25447616 -0.668137014
vn 0.744038343 -1.91526496E-07 -0.668137014
vn 0.744038284 -1.6532104E-07 -0.668137014
vn 0.699167132 -0.254476488 -0.668137014
vn 0.699167132 -0.254476488 -0.668136895
vn 0.569966078 -0.478258967 -0.668136954
vn 0.569966078 -0.478258967 -0.668136954
vn 0.372018754 -0.64435631 -0.668136895
vn 0.372018784 -0.64435631 -0.668136954
vn 0.129200488 -0.732734859 -0.668136954
vn 0.129200518 -0.732734859 -0.668136954
vn -0.129201308 -0.732734799 -0.668136775
vn -0.129201278 -0.73273474 -0.668136835
vn -0.372019321 -0.644356132 -0.668136775
vn -0.372019321 -0.644356072 -0.668136835
vn -0.569966555 -0.47825858 -0.668136835
vn -0.569966495 -0.47825855 -0.668136835
vn -0.69916755 -0.254476011 -0.668136835
vn -0.69916743 -0.254476011 -0.668136775
vn -0.744038463 0 -0.668136835
vn -0.744038403 0 -0.668136835
vn -0.69916743 0.254476249 -0.668136835
vn -0.69916743 0.254476279 -0.668136835
vn -0.569966555 0.478258699 -0.668136775
vn -0.569966495 0.478258759 -0.668136835
vn -0.372019261 0.644356012 -0.668136895
vn -0.372019261 0.644356012 -0.668136835
vn -0.129200965 0.73273474 -0.668136895
vn -0.12920095 0.73273474 -0.668136895
g Cylinder001_0
f 3/3/3 2/2/2 1/1/1
f 2/2/2 4/4/4 1/1/1
f 1/1/1 4/4/4 5/5/5
f 4/4/4 6/6/6 5/5/5
f 5/5/5 6/6/6 7/7/7
f 6/6/6 8/8/8 7/7/7
f 7/7/7 8/8/8 9/9/9
f 8/8/8 10/10/10 9/9/9
f 9/9/9 10/10/10 11/11/11
f 10/10/10 12/12/12 11/11/11
f 11/11/11 12/12/12 13/13/13
f 12/12/12 14/14/14 13/13/13
f 13/13/13 14/14/14 15/15/15
f 14/14/14 16/16/16 15/15/15
f 15/15/15 16/16/16 17/17/17
f 16/16/16 18/18/18 17/17/17
f 17/17/17 18/18/18 19/19/19
f 18/18/18 20/20/20 19/19/19
f 19/19/19 20/20/20 21/21/21
f 20/20/20 22/22/22 21/21/21
f 21/21/21 22/22/22 23/23/23
f 22/22/22 24/24/24 23/23/23
f 23/23/23 24/24/24 25/25/25
f 24/24/24 26/26/26 25/25/25
f 25/25/25 26/26/26 27/27/27
f 26/26/26 28/28/28 27/27/27
f 27/27/27 28/28/28 29/29/29
f 28/28/28 30/30/30 29/29/29
f 29/29/29 30/30/30 31/31/31
f 30/30/30 32/32/32 31/31/31
f 31/31/31 32/32/32 33/33/33
f 32/32/32 34/34/34 33/33/33
f 33/33/33 34/34/34 35/35/35
f 34/34/34 36/36/36 35/35/35
f 35/35/35 36/36/36 37/37/37
f 36/36/36 38/38/38 37/37/37
